<?xml version="1.0" encoding="UTF-8"?>
<svg id="_Слой_2" data-name="Слой 2" xmlns="http://www.w3.org/2000/svg" viewBox="0 0 64.7 65.35">
  <defs>
    <style>
      .cls-1 {
        fill: #e72566;
      }
    </style>
  </defs>
  <g id="_Слой_1-2" data-name="Слой 1">
    <g>
      <path class="cls-1" d="M25.2,64.44c-6.25-1.35-10.9-3.9-15.8-8.75-4.2-4.2-6.25-7.35-8.25-12.75-1-2.85-1.15-4.15-1.15-10.25s.15-7.45,1.15-10.25c1.9-5.3,4-8.5,8.25-12.75C20-.86,34.15-2.91,47.95,4.09c3.3,1.65,7.3,5.15,6.25,5.5-4.2,1.4-3.9,1.4-6.65-.4-4.5-3-9.3-4.35-15.35-4.35-5.9-.05-9.45.9-14.5,3.9-7.75,4.55-12.9,13-13.35,21.95-.3,5.7.35,9.2,2.65,14.1,2.1,4.45,7.25,10.05,11.4,12.3,11.05,6.1,24.7,4.25,33.55-4.55,6.9-6.85,9.55-16.05,7.5-26.2-.9-4.6-.6-7.1,1-8.4.6-.5.9-.2,1.8,1.8,1.65,3.85,2.45,8.1,2.45,12.95,0,9.35-2.8,16.05-9.45,22.75-5.3,5.3-9.55,7.65-16.2,9.05-5.65,1.15-8.35,1.15-13.85-.05Z"/>
      <path class="cls-1" d="M30.7,55.34c-.7-.3-3.85-1.7-7-3.05-9.35-4-10.5-4.55-10.5-4.95,0-.2,5.4-3.95,12.05-8.3l12-8,3.35,1.5c1.85.85,4.25,1.9,5.35,2.35,8.55,3.7,10.75,4.75,10.75,5.15,0,.2-.2.4-.45.4-.2,0-5.6,3.5-12,7.75-6.35,4.25-11.75,7.75-11.95,7.7-.2,0-.9-.25-1.6-.55Z"/>
      <path class="cls-1" d="M11.25,34.54l-.1-11,11.8-7.9c6.45-4.3,11.9-7.75,12.05-7.6.1.15.35,2.95.5,6.2.1,3.3.3,8,.45,10.5.2,3.9.1,4.7-.65,5.3-1.65,1.45-22.25,15.05-23.1,15.25s-.9-.5-.95-10.75ZM33.95,20.19c-.2-4.65-.45-8.65-.6-8.85-.1-.2-4.8,2.7-10.4,6.45l-10.25,6.8.3,7.8c.15,4.3.35,8.3.5,8.95.2,1,1,.6,10.5-5.75l10.3-6.9s-.35-8.5-.35-8.5Z"/>
      <path class="cls-1" d="M15.95,31.19c-.55-3.4-.05-4.3,3.3-6.4,1.7-1.05,3.15-1.8,3.3-1.7.1.1.3,1.35.5,2.8.15,1.4.4,2.55.55,2.55s1.05-.5,1.95-1.1c1.4-1,1.65-1.45,1.65-3.15,0-1.8.2-2.1,2-3.15l2-1.15v2.05c0,1.1-.2,2-.45,2s-1.15.6-2,1.3c-1.2,1-1.55,1.7-1.55,3.1,0,1.55-.3,2.05-1.75,3-2.2,1.4-2.25,1.4-2.25-.4,0-1.9-.45-1.9-3.4.15-1.3.9-2.6,1.8-2.95,2-.4.25-.7-.35-.9-1.9Z"/>
      <path class="cls-1" d="M53,27.39c-.15-.4-.75-2.05-1.3-3.7-.6-1.65-1.2-3.35-1.3-3.75-.15-.4-1.95-1.7-4-2.9-2.1-1.2-3.7-2.25-3.6-2.35s1.5-.5,3.15-.9c1.65-.45,5.25-1.35,8-2.1,8.85-2.35,8.35-2.3,8-1.2-.85,2.6-8.75,17.55-8.95,16.9Z"/>
    </g>
  </g>
</svg>