<?xml version="1.0" encoding="utf-8"?>
<!DOCTYPE svg PUBLIC "-//W3C//DTD SVG 1.0//EN" "http://www.w3.org/TR/2001/REC-SVG-20010904/DTD/svg10.dtd">
<svg version="1.0" xmlns="http://www.w3.org/2000/svg" width="200px" height="200px" viewBox="0 0 200 200" preserveAspectRatio="xMidYMid meet">
 <g fill="#143447">
  <path d="M0 100 l0 -100 100 0 100 0 0 100 0 100 -100 0 -100 0 0 -100z m137.80 53.10 c1.25 -0.80 2.95 -6.60 1.75 -5.85 -0.30 0.15 -0.55 0.80 -0.55 1.45 0 1.95 -0.70 1.95 -1.60 -0.05 -0.65 -1.55 -0.85 -1.70 -0.85 -0.75 -0.05 0.65 0.30 1.80 0.70 2.65 0.70 1.30 0.70 1.50 0 1.75 -0.40 0.15 -0.75 0.50 -0.75 0.75 0 0.55 0.55 0.55 1.30 0.05z m-73.40 -2 c-1.35 -0.15 -1.40 -0.30 -1.40 -2.90 0 -2.05 -0.20 -2.70 -0.75 -2.70 -0.60 0 -0.75 0.65 -0.75 2.95 0 3.20 0.25 3.50 2.70 3.10 l1.55 -0.30 -1.35 -0.15z m5.85 0.40 c0.20 -0.30 -0.25 -0.50 -0.95 -0.50 -1.60 0 -1.70 -0.85 -0.15 -1.10 1.50 -0.20 1.75 -2.15 0.40 -2.90 -0.85 -0.40 -1.20 -0.35 -2.05 0.50 -0.55 0.55 -1 1.40 -1 1.85 0 1.85 2.90 3.50 3.75 2.15z m5.40 -1 c0.55 -2.50 -0.45 -4.10 -2.20 -3.65 -1.20 0.35 -0.75 1.15 0.60 1.15 0.55 0 0.85 0.25 0.70 0.50 -0.15 0.30 -0.75 0.50 -1.30 0.50 -1.45 0 -1.30 2.35 0.20 2.65 0.60 0.10 1.25 0.25 1.40 0.30 0.20 0 0.45 -0.60 0.60 -1.45z m3.35 -0.80 c0 -1.30 0.25 -1.85 1.15 -2.20 0.95 -0.40 0.85 -0.45 -0.65 -0.35 -0.95 0.05 -1.70 0.25 -1.60 0.50 0.05 0.20 0.10 1.25 0.10 2.40 0 1.20 0.20 1.90 0.50 1.70 0.30 -0.15 0.50 -1.10 0.50 -2.05z m4.65 -1.60 c0.90 0.10 1.15 0.55 1.25 2.05 0.20 2.15 1.10 2.05 1.10 -0.15 0 -2.40 -0.45 -3 -2.30 -3 l-1.70 0 0.10 2.65 c0.05 2.55 0.10 2.55 0.25 0.45 0.20 -1.90 0.35 -2.15 1.30 -2z m40.60 3.45 c0.15 -0.25 -0.25 -0.55 -0.85 -0.65 -0.60 -0.10 -1.15 -0.45 -1.30 -0.85 -0.15 -0.40 0 -0.55 0.30 -0.35 0.35 0.20 1.05 0.10 1.60 -0.20 0.85 -0.45 0.90 -0.70 0.45 -1.55 -0.80 -1.55 -3.05 -1.10 -3.70 0.75 -0.40 1.20 -0.30 1.55 0.70 2.35 1.25 1.05 2.35 1.20 2.80 0.50z m5.65 -1.90 c0.15 -1.70 -0.05 -2.20 -0.90 -2.65 -1.05 -0.55 -2 -0.30 -2 0.55 0 0.25 0.45 0.45 1 0.45 0.55 0 1 0.25 1 0.60 0 0.30 -0.15 0.40 -0.30 0.25 -0.55 -0.55 -2.20 0.65 -2.20 1.65 0 1.05 0.75 1.50 2.25 1.35 0.80 -0.10 1.05 -0.50 1.15 -2.20z m-38.40 0.15 c0 -1.30 0.25 -1.75 1.15 -2.05 l1.10 -0.40 -1.10 -0.20 c-1.40 -0.25 -1.50 -1.15 -0.15 -1.50 1.30 -0.35 1.30 -1.15 0 -1.15 -0.50 0 -1.20 0.45 -1.50 0.95 -0.65 1.25 -0.65 6.05 0 6.05 0.30 0 0.50 -0.75 0.50 -1.70z m6.50 -0.30 c0 -1.45 -0.25 -2.10 -1 -2.50 -1.05 -0.55 -2 -0.30 -2 0.55 0 0.25 0.45 0.45 1.05 0.45 0.55 0 0.85 0.25 0.70 0.50 -0.15 0.30 -0.75 0.50 -1.30 0.50 -0.70 0 -0.95 0.35 -0.95 1.25 0 1.10 0.20 1.25 1.75 1.25 1.70 0 1.75 -0.05 1.75 -2z m5 1 c0 -0.50 -0.45 -1.20 -1 -1.50 -1.15 -0.60 -1.35 -1.75 -0.25 -1.35 0.40 0.20 0.85 0.10 1 -0.15 0.20 -0.30 -0.35 -0.50 -1.15 -0.50 -2 0 -2.45 1.25 -0.85 2.30 1.55 1 1.60 1.55 0.15 1.85 -0.85 0.15 -0.70 0.25 0.50 0.30 1.30 0.05 1.60 -0.15 1.60 -0.95z m3.65 0.65 c-0.85 -0.15 -1.15 -0.55 -1.15 -1.65 0 -1 0.30 -1.50 1.15 -1.75 l1.10 -0.40 -1.10 -0.20 c-0.65 -0.10 -1.15 -0.55 -1.15 -0.95 0 -0.40 -0.20 -0.70 -0.50 -0.70 -0.55 0 -0.70 3.90 -0.20 5.20 0.20 0.50 0.85 0.75 1.65 0.75 1.15 -0.10 1.20 -0.10 0.20 -0.30z m9.45 -1 c-0.15 -0.75 -0.55 -1.15 -1.20 -1.15 -0.75 0 -0.90 0.25 -0.65 1.05 0.30 0.85 0.15 1 -0.55 0.85 -1.35 -0.25 -1.40 -1.55 -0.10 -2.15 0.70 -0.30 1.20 -1 1.30 -1.85 0.15 -1.20 0 -1.40 -1.05 -1.40 -1.30 0 -2 1 -1.55 2.25 0.20 0.40 0.10 0.75 -0.20 0.75 -0.65 0 -1.15 1.35 -0.80 2.25 0.25 0.55 0.95 0.75 2.65 0.70 2.20 -0.10 2.35 -0.20 2.15 -1.30z m18.60 0.90 c0.45 -0.70 -0.20 -2.05 -0.95 -2.05 -1.25 0 -1.35 -1 -0.15 -1.45 1.15 -0.50 1.15 -0.50 -0.20 -0.50 -1.95 -0.05 -2.25 0.95 -0.75 2.25 1.65 1.40 1.65 1.55 0.25 1.85 -1 0.20 -1 0.20 0.20 0.30 0.75 0 1.45 -0.15 1.60 -0.40z m-96.65 -14.50 c0.55 -0.10 6.05 -13.55 6.70 -16.40 0.35 -1.65 0.30 -1.65 -1.65 -1.65 -2.15 0 -2.25 0.15 -3.80 5 -1.75 5.40 -2.60 7.55 -3.05 7.65 -0.50 0.10 -2.60 -5.45 -3.95 -10.15 -0.60 -2.25 -0.65 -2.25 -3 -2.40 -2.30 -0.15 -2.35 -0.10 -2.05 1 0.40 1.50 3.15 8.55 4.35 11.25 0.50 1.15 0.90 2.30 0.90 2.50 0 0.20 0.45 1.10 0.95 1.95 0.95 1.60 1.10 1.60 4.60 1.25z m16.95 -0.20 c5.70 -2.90 4 -12.85 -2.40 -13.70 -4.30 -0.55 -7.70 2.70 -7.70 7.40 0.05 2.75 1.70 5.60 3.80 6.45 1.55 0.65 4.90 0.55 6.30 -0.15z m15.85 0.25 c0.30 -0.20 0.45 -0.95 0.30 -1.70 -0.25 -1.30 -0.40 -1.35 -2.40 -1.05 -2.80 0.35 -4.25 -0.95 -4.25 -3.85 0 -2.80 1.45 -4.20 4.05 -3.85 1.75 0.25 1.90 0.15 2.20 -1.25 0.20 -0.80 0.20 -1.60 0 -1.80 -0.20 -0.20 -1.60 -0.35 -3.15 -0.35 -4.75 0 -7.10 2.55 -7.10 7.60 0 3.15 1.20 5 4 6.25 1.05 0.45 5.60 0.45 6.35 0z m11.30 0.10 l1.85 -0.35 0 -5.20 0 -5.25 -1.70 -1.70 c-1.50 -1.50 -2 -1.70 -4.20 -1.70 -1.40 0 -3.10 0.20 -3.80 0.45 -1.05 0.45 -1.15 0.70 -0.85 1.90 0.35 1.25 0.50 1.35 2.75 1.20 2.35 -0.15 3.80 0.50 3.80 1.65 0 0.40 -0.55 0.55 -1.45 0.40 -0.80 -0.10 -2.45 0.25 -3.70 0.80 -1.95 0.85 -2.35 1.30 -2.60 2.75 -0.40 2.15 0.80 4.70 2.35 5 1.85 0.35 5.50 0.35 7.55 0.05z m15.10 -0.20 c2.75 -0.65 4.25 -2.45 4.25 -5.30 0 -1.70 -0.25 -2.45 -1.20 -3.25 l-1.20 -1.05 0.95 -1.65 c0.95 -1.55 0.95 -1.80 0.25 -3.50 -1.10 -2.55 -3.20 -3.35 -8.70 -3.15 l-4.35 0.15 -0.15 8.85 -0.10 8.85 1.35 0.20 c2.65 0.40 6.90 0.35 8.90 -0.15z m18.20 -0.20 c0.35 -0.25 0.55 -2.55 0.55 -6.85 l0 -6.45 -2 0 -2 0 0 5.50 c0 5.50 0 5.50 -1.20 5.50 -2.30 0 -2.80 -1.15 -2.80 -6.30 l0 -4.70 -2 0 -2 0 0 5.15 c0 5.55 0.80 7.75 3.10 8.45 1.35 0.45 7.50 0.20 8.35 -0.30z m7.45 -6.40 l0.15 -6.90 -2.05 0 -2 0 0 6.65 c0 3.70 0.10 6.80 0.20 6.90 0.10 0.10 0.95 0.20 1.90 0.20 l1.65 0 0.15 -6.85z m9 5.70 c0.10 -0.80 -0.20 -1.45 -0.85 -1.95 -1 -0.65 -1.05 -1.15 -1.05 -9 l0 -8.25 -1.10 0.30 c-0.65 0.15 -1.55 0.30 -2 0.30 -0.80 0 -0.90 0.70 -0.90 8 0 8.90 0.50 11.25 2.60 11.65 2.20 0.45 3.15 0.15 3.30 -1.05z m12.55 1.10 l1.55 -0.30 0 -10 0 -10 -1.10 0.30 c-0.65 0.15 -1.55 0.30 -2 0.30 -0.75 0 -0.90 0.45 -0.90 2.90 l0 2.85 -2.35 0 c-4.05 0 -6.15 2.45 -6.15 7.20 0 2.90 1.30 5.50 3.20 6.35 1.65 0.70 5.20 0.90 7.75 0.40z m15.25 0 c0.50 -0.20 0.80 -0.90 0.80 -1.75 l0 -1.50 -2.50 0.35 c-1.90 0.25 -2.80 0.15 -3.75 -0.50 -2.10 -1.40 -1.25 -1.90 3 -2 l4 -0.05 0.15 -1.50 c0.65 -5.55 -4.90 -9.15 -9.45 -6.10 -2.40 1.60 -3.55 4.05 -3.30 6.95 0.25 2.70 2.20 5.70 3.95 6.05 1.85 0.35 6.25 0.40 7.10 0.05z m8.20 -5.45 l0.15 -5.40 2.15 0.25 c2.10 0.25 2.20 0.20 2.50 -1.25 0.20 -1 0.10 -1.70 -0.30 -1.95 -0.90 -0.55 -3.60 -0.50 -6.20 0.15 l-2.20 0.55 0 6.40 c0 3.45 0.10 6.45 0.25 6.60 0.15 0.15 1 0.20 1.90 0.15 l1.60 -0.10 0.15 -5.40z m-45.15 -12.25 c0 -1.60 -0.15 -1.75 -1.60 -1.90 -1.20 -0.10 -1.70 0.10 -2.15 0.85 -0.85 1.70 0.20 3.15 2.15 2.95 1.45 -0.15 1.60 -0.30 1.60 -1.90z m-15.40 -7.95 c6.65 -1.40 10.90 -3.75 16.20 -9.05 6.65 -6.70 9.45 -13.40 9.45 -22.75 0 -4.85 -0.80 -9.10 -2.45 -12.95 -0.90 -2 -1.20 -2.30 -1.80 -1.80 -1.60 1.30 -1.90 3.80 -1 8.40 2.05 10.15 -0.60 19.35 -7.50 26.20 -8.85 8.80 -22.50 10.65 -33.55 4.55 -4.15 -2.25 -9.30 -7.85 -11.40 -12.30 -2.30 -4.90 -2.95 -8.40 -2.65 -14.10 0.45 -8.95 5.60 -17.40 13.35 -21.95 5.05 -3 8.60 -3.95 14.50 -3.90 6.05 0 10.85 1.35 15.35 4.35 2.75 1.80 2.45 1.80 6.65 0.40 1.05 -0.35 -2.95 -3.85 -6.25 -5.50 -5.20 -2.65 -8.75 -3.70 -13.70 -4 -9.65 -0.55 -17.85 2.65 -24.85 9.60 -4.25 4.25 -6.35 7.45 -8.25 12.75 -1 2.80 -1.15 4.15 -1.15 10.25 0 6.10 0.15 7.40 1.15 10.25 2 5.40 4.05 8.55 8.25 12.75 4.90 4.85 9.55 7.40 15.80 8.75 5.50 1.20 8.20 1.20 13.85 0.05z m5.20 -16.30 c6.40 -4.25 11.80 -7.75 12 -7.75 0.25 0 0.45 -0.20 0.45 -0.40 0 -0.40 -2.20 -1.45 -10.75 -5.15 -1.10 -0.45 -3.50 -1.50 -5.35 -2.35 l-3.35 -1.50 -12 8 c-6.65 4.35 -12.05 8.10 -12.05 8.30 0 0.40 1.15 0.95 10.50 4.95 3.15 1.35 6.30 2.75 7 3.05 0.70 0.30 1.40 0.55 1.60 0.55 0.20 0.05 5.60 -3.45 11.95 -7.70z m-20.50 -10.25 c5.90 -3.95 11.10 -7.45 11.55 -7.90 0.75 -0.60 0.85 -1.40 0.65 -5.30 -0.15 -2.50 -0.35 -7.20 -0.45 -10.50 -0.15 -3.25 -0.40 -6.05 -0.50 -6.20 -0.15 -0.15 -5.60 3.30 -12.05 7.60 l-11.80 7.90 0.10 11 c0.05 10.25 0.10 10.95 0.95 10.75 0.50 -0.10 5.70 -3.45 11.55 -7.35z m38.20 -27.45 c0.35 -1.10 0.85 -1.15 -8 1.20 -2.75 0.75 -6.35 1.65 -8 2.10 -1.65 0.40 -3.05 0.80 -3.15 0.90 -0.10 0.10 1.50 1.15 3.60 2.35 2.05 1.20 3.85 2.50 4 2.90 0.10 0.40 0.70 2.10 1.30 3.75 0.55 1.65 1.15 3.30 1.30 3.70 0.20 0.65 8.10 -14.30 8.95 -16.90z"/>
  <path d="M73.50 150.20 c0 -0.85 1.10 -0.70 1.40 0.20 0.10 0.35 -0.15 0.60 -0.60 0.60 -0.45 0 -0.80 -0.35 -0.80 -0.80z"/>
  <path d="M122.25 148.50 c-0.15 -0.25 0.05 -0.50 0.45 -0.50 0.40 0 0.90 0.25 1.05 0.50 0.15 0.30 -0.05 0.50 -0.45 0.50 -0.40 0 -0.90 -0.20 -1.05 -0.50z"/>
  <path d="M127.60 150.40 c0.30 -0.90 1.40 -1.05 1.40 -0.20 0 0.45 -0.35 0.80 -0.80 0.80 -0.45 0 -0.70 -0.25 -0.60 -0.60z"/>
  <path d="M95.60 150.40 c0.30 -0.90 1.40 -1.05 1.40 -0.20 0 0.45 -0.35 0.80 -0.80 0.80 -0.45 0 -0.70 -0.25 -0.60 -0.60z"/>
  <path d="M113.10 147.15 c0.10 -0.45 0.40 -0.90 0.75 -1 0.35 -0.15 0.45 0.15 0.30 0.80 -0.30 1.25 -1.30 1.40 -1.05 0.20z"/>
  <path d="M49.80 132.90 c-1.10 -1.55 -1.05 -5.05 0.10 -6.05 1.60 -1.45 3.05 -1.05 3.90 0.95 1.70 4.05 -1.70 8.35 -4 5.10z"/>
  <path d="M76.35 133.65 c-0.65 -0.60 -0.35 -2.05 0.45 -2.35 0.45 -0.15 1.35 -0.30 2 -0.30 1 0 1.20 0.25 1.20 1.50 0 1.35 -0.15 1.50 -1.65 1.50 -0.95 0 -1.85 -0.15 -2 -0.35z"/>
  <path d="M91.85 133.65 c-0.15 -0.20 -0.35 -1.30 -0.45 -2.40 -0.15 -1.95 -0.10 -2 1.55 -2.15 0.95 -0.10 2.20 -0.05 2.85 0.10 1.95 0.50 2.15 3.45 0.30 4 -2.30 0.65 -4.05 0.80 -4.25 0.45z"/>
  <path d="M91.50 123.80 c0 -1.75 0.05 -1.80 1.90 -1.80 2.40 0 3.25 0.60 3 2.05 -0.15 1.05 -0.45 1.20 -2.50 1.35 l-2.40 0.15 0 -1.75z"/>
  <path d="M138.90 133.50 c-0.45 -0.30 -1.10 -1.30 -1.40 -2.30 -0.75 -2.25 0.10 -4.60 1.80 -5 2.35 -0.60 2.70 -0.05 2.70 4.05 0 3.55 -0.05 3.75 -1.10 3.75 -0.65 0 -1.55 -0.25 -2 -0.50z"/>
  <path d="M153 127.80 c0 -2 3.15 -2.30 4.40 -0.40 0.70 1.10 0.70 1.10 -1.85 1.10 -1.85 0 -2.55 -0.20 -2.55 -0.70z"/>
  <path d="M81.80 87.90 c-0.15 -0.65 -0.35 -4.65 -0.50 -8.95 l-0.30 -7.80 10.25 -6.80 c5.60 -3.75 10.30 -6.65 10.40 -6.45 0.15 0.20 0.40 4.20 0.60 8.85 l0.35 8.50 -10.30 6.90 c-9.50 6.35 -10.30 6.75 -10.50 5.75z m6.30 -10.25 c2.95 -2.05 3.40 -2.05 3.40 -0.15 0 1.80 0.05 1.80 2.25 0.40 1.45 -0.95 1.75 -1.45 1.75 -3 0 -1.40 0.35 -2.10 1.55 -3.10 0.85 -0.70 1.75 -1.30 2 -1.30 0.25 0 0.45 -0.90 0.45 -2 l0 -2.05 -2 1.15 c-1.80 1.05 -2 1.35 -2 3.15 0 1.70 -0.25 2.15 -1.65 3.15 -0.90 0.60 -1.80 1.10 -1.95 1.10 -0.15 0 -0.40 -1.15 -0.55 -2.55 -0.20 -1.45 -0.40 -2.70 -0.50 -2.80 -0.50 -0.50 -6.35 3.70 -6.65 4.75 -0.50 1.70 0.25 5.70 0.95 5.25 0.35 -0.20 1.65 -1.10 2.95 -2z"/>
 </g>
 <g fill="#ff0763">
  <path d="M93.50 111 c-6.25 -1.35 -10.90 -3.90 -15.80 -8.75 -4.20 -4.20 -6.25 -7.35 -8.25 -12.75 -1 -2.85 -1.15 -4.15 -1.15 -10.25 0 -6.10 0.15 -7.45 1.15 -10.25 1.90 -5.30 4 -8.50 8.25 -12.75 10.60 -10.55 24.75 -12.60 38.55 -5.60 3.30 1.65 7.30 5.15 6.25 5.50 -4.20 1.40 -3.90 1.40 -6.65 -0.40 -4.50 -3 -9.30 -4.35 -15.35 -4.35 -5.90 -0.05 -9.45 0.90 -14.50 3.90 -7.75 4.55 -12.90 13 -13.35 21.95 -0.30 5.70 0.35 9.20 2.65 14.10 2.10 4.45 7.25 10.05 11.40 12.30 11.05 6.10 24.70 4.25 33.55 -4.55 6.90 -6.85 9.55 -16.05 7.50 -26.20 -0.90 -4.60 -0.60 -7.10 1 -8.40 0.60 -0.50 0.90 -0.20 1.80 1.80 1.65 3.85 2.45 8.10 2.45 12.95 0 9.35 -2.80 16.05 -9.45 22.75 -5.30 5.30 -9.55 7.65 -16.20 9.05 -5.65 1.15 -8.35 1.15 -13.85 -0.05z"/>
  <path d="M99 101.90 c-0.70 -0.30 -3.85 -1.70 -7 -3.05 -9.35 -4 -10.50 -4.55 -10.50 -4.95 0 -0.20 5.40 -3.95 12.05 -8.30 l12 -8 3.35 1.50 c1.85 0.85 4.25 1.90 5.35 2.35 8.55 3.70 10.75 4.75 10.75 5.15 0 0.20 -0.20 0.40 -0.45 0.40 -0.20 0 -5.60 3.50 -12 7.75 -6.35 4.25 -11.75 7.75 -11.95 7.70 -0.20 0 -0.90 -0.25 -1.60 -0.55z"/>
  <path d="M79.55 81.10 l-0.10 -11 11.80 -7.90 c6.45 -4.30 11.90 -7.75 12.05 -7.60 0.10 0.15 0.35 2.95 0.50 6.20 0.10 3.30 0.30 8 0.45 10.50 0.20 3.90 0.10 4.70 -0.65 5.30 -1.65 1.45 -22.25 15.05 -23.10 15.25 -0.85 0.20 -0.90 -0.50 -0.95 -10.75z m22.70 -14.35 c-0.20 -4.65 -0.45 -8.65 -0.60 -8.85 -0.10 -0.20 -4.80 2.70 -10.40 6.45 l-10.25 6.80 0.30 7.80 c0.15 4.30 0.35 8.30 0.50 8.95 0.20 1 1 0.60 10.50 -5.75 l10.30 -6.90 -0.35 -8.50z"/>
  <path d="M84.25 77.75 c-0.55 -3.40 -0.05 -4.30 3.30 -6.40 1.70 -1.05 3.15 -1.80 3.30 -1.70 0.10 0.10 0.30 1.35 0.50 2.80 0.15 1.40 0.40 2.55 0.55 2.55 0.15 0 1.05 -0.50 1.95 -1.10 1.40 -1 1.65 -1.45 1.65 -3.15 0 -1.80 0.20 -2.10 2 -3.15 l2 -1.15 0 2.05 c0 1.10 -0.20 2 -0.45 2 -0.25 0 -1.15 0.60 -2 1.30 -1.20 1 -1.55 1.70 -1.55 3.10 0 1.55 -0.30 2.05 -1.75 3 -2.20 1.40 -2.25 1.40 -2.25 -0.40 0 -1.90 -0.45 -1.90 -3.40 0.15 -1.30 0.90 -2.60 1.80 -2.95 2 -0.40 0.25 -0.70 -0.35 -0.90 -1.90z"/>
  <path d="M121.30 73.95 c-0.15 -0.40 -0.75 -2.05 -1.30 -3.70 -0.60 -1.65 -1.20 -3.35 -1.30 -3.75 -0.15 -0.40 -1.95 -1.70 -4 -2.90 -2.10 -1.20 -3.70 -2.25 -3.60 -2.35 0.10 -0.10 1.50 -0.50 3.15 -0.90 1.65 -0.45 5.25 -1.35 8 -2.10 8.85 -2.35 8.35 -2.30 8 -1.20 -0.85 2.60 -8.75 17.55 -8.95 16.90z"/>
 </g>
 <g fill="#eef1f3">
  <path d="M136.50 153.05 c0 -0.25 0.35 -0.60 0.75 -0.75 0.70 -0.25 0.70 -0.45 0 -1.75 -0.40 -0.85 -0.75 -2 -0.70 -2.65 0 -0.95 0.20 -0.80 0.85 0.75 0.90 2 1.60 2 1.60 0.05 0 -0.65 0.25 -1.30 0.55 -1.45 0.60 -0.40 0.10 2.90 -0.70 4.50 -0.75 1.50 -2.35 2.35 -2.35 1.30z"/>
  <path d="M62.10 151.60 c-0.35 -0.10 -0.60 -1.35 -0.60 -3.15 0 -2.30 0.15 -2.95 0.75 -2.95 0.55 0 0.75 0.65 0.75 2.70 0 2.60 0.05 2.75 1.40 2.90 l1.35 0.15 -1.55 0.30 c-0.85 0.15 -1.80 0.15 -2.10 0.05z"/>
  <path d="M67.35 151.10 c-1.15 -1.25 -1.05 -2.40 0.15 -3.60 0.85 -0.85 1.20 -0.90 2.05 -0.50 1.35 0.75 1.10 2.70 -0.40 2.90 -1.55 0.25 -1.45 1.10 0.15 1.10 0.70 0 1.15 0.20 0.95 0.50 -0.50 0.80 -2 0.60 -2.90 -0.40z"/>
  <path d="M73.65 151.65 c-1.50 -0.30 -1.65 -2.65 -0.20 -2.65 0.55 0 1.15 -0.20 1.30 -0.50 0.15 -0.25 -0.15 -0.50 -0.70 -0.50 -1.35 0 -1.80 -0.80 -0.60 -1.15 1.10 -0.30 1.75 0.10 2.20 1.30 0.35 0.95 -0.10 3.90 -0.60 3.80 -0.15 -0.05 -0.80 -0.20 -1.40 -0.30z m1.25 -1.25 c-0.30 -0.90 -1.40 -1.05 -1.40 -0.20 0 0.45 0.35 0.80 0.80 0.80 0.45 0 0.70 -0.25 0.60 -0.60z"/>
  <path d="M78 150.05 c0 -1.15 -0.05 -2.20 -0.10 -2.40 -0.10 -0.25 0.65 -0.45 1.60 -0.50 1.50 -0.10 1.60 -0.05 0.65 0.35 -0.90 0.35 -1.15 0.90 -1.15 2.20 0 0.95 -0.20 1.90 -0.50 2.05 -0.30 0.20 -0.50 -0.50 -0.50 -1.70z"/>
  <path d="M82.10 149.65 l-0.10 -2.65 1.70 0 c1.85 0 2.30 0.60 2.30 3 0 2.20 -0.90 2.30 -1.10 0.15 -0.10 -1.50 -0.35 -1.95 -1.25 -2.05 -0.95 -0.15 -1.10 0.10 -1.30 2 -0.15 2.10 -0.20 2.10 -0.25 -0.45z"/>
  <path d="M121.45 151.05 c-1 -0.80 -1.10 -1.15 -0.70 -2.35 0.65 -1.85 2.90 -2.30 3.70 -0.75 0.45 0.85 0.40 1.10 -0.45 1.55 -0.55 0.30 -1.25 0.40 -1.60 0.20 -0.30 -0.20 -0.45 -0.05 -0.30 0.35 0.15 0.40 0.70 0.75 1.30 0.85 0.60 0.10 1 0.40 0.85 0.65 -0.45 0.70 -1.55 0.55 -2.80 -0.50z m2.30 -2.55 c-0.15 -0.25 -0.65 -0.50 -1.05 -0.50 -0.40 0 -0.60 0.25 -0.45 0.50 0.15 0.30 0.65 0.50 1.05 0.50 0.40 0 0.60 -0.20 0.45 -0.50z"/>
  <path d="M127.15 151.70 c-0.95 -0.40 -0.75 -2.10 0.30 -2.65 0.50 -0.30 1.05 -0.35 1.25 -0.20 0.15 0.15 0.30 0.05 0.30 -0.25 0 -0.35 -0.45 -0.60 -1 -0.60 -0.55 0 -1 -0.20 -1 -0.45 0 -0.85 0.95 -1.10 2 -0.55 0.85 0.45 1.05 0.95 0.90 2.65 -0.15 2.10 -1.05 2.75 -2.75 2.05z m1.85 -1.50 c0 -0.45 -0.25 -0.70 -0.60 -0.60 -0.90 0.30 -1.05 1.40 -0.20 1.40 0.45 0 0.80 -0.35 0.80 -0.80z"/>
  <path d="M90.50 148.95 c0 -3 0.65 -4.45 2 -4.45 1.30 0 1.30 0.80 0 1.15 -1.35 0.35 -1.25 1.25 0.15 1.50 l1.10 0.20 -1.10 0.40 c-0.90 0.30 -1.15 0.75 -1.15 2.05 0 0.95 -0.20 1.70 -0.50 1.70 -0.25 0 -0.50 -1.15 -0.50 -2.55z"/>
  <path d="M94.50 150.25 c0 -0.90 0.25 -1.25 0.95 -1.25 0.55 0 1.15 -0.20 1.30 -0.50 0.15 -0.25 -0.15 -0.50 -0.70 -0.50 -0.60 0 -1.05 -0.20 -1.05 -0.45 0 -0.85 0.95 -1.10 2 -0.55 0.75 0.40 1 1.05 1 2.50 0 1.95 -0.05 2 -1.75 2 -1.55 0 -1.75 -0.15 -1.75 -1.25z m2.50 -0.05 c0 -0.85 -1.10 -0.70 -1.40 0.20 -0.10 0.35 0.15 0.60 0.60 0.60 0.45 0 0.80 -0.35 0.80 -0.80z"/>
  <path d="M100.90 151.15 c1.45 -0.30 1.40 -0.85 -0.15 -1.85 -1.60 -1.05 -1.15 -2.30 0.85 -2.30 0.80 0 1.35 0.20 1.15 0.50 -0.15 0.25 -0.60 0.35 -1 0.15 -1.10 -0.40 -0.90 0.75 0.25 1.35 0.55 0.30 1 1 1 1.50 0 0.80 -0.30 1 -1.60 0.95 -1.20 -0.05 -1.35 -0.15 -0.50 -0.30z"/>
  <path d="M104.80 150.70 c-0.50 -1.30 -0.35 -5.20 0.20 -5.20 0.30 0 0.50 0.30 0.50 0.70 0 0.40 0.50 0.85 1.15 0.95 l1.10 0.20 -1.10 0.40 c-0.85 0.25 -1.15 0.75 -1.15 1.75 0 1.10 0.30 1.50 1.15 1.65 1 0.20 0.95 0.20 -0.20 0.30 -0.80 0 -1.45 -0.25 -1.65 -0.75z"/>
  <path d="M111.30 150.75 c-0.35 -0.90 0.15 -2.25 0.80 -2.25 0.30 0 0.40 -0.35 0.20 -0.75 -0.45 -1.25 0.25 -2.25 1.55 -2.25 1.05 0 1.20 0.20 1.05 1.40 -0.10 0.85 -0.60 1.55 -1.30 1.85 -1.30 0.60 -1.25 1.90 0.10 2.15 0.70 0.15 0.85 0 0.55 -0.85 -0.25 -0.80 -0.10 -1.05 0.65 -1.05 0.65 0 1.05 0.40 1.20 1.15 0.20 1.10 0.05 1.20 -2.15 1.30 -1.70 0.05 -2.40 -0.15 -2.65 -0.70z m2.85 -3.80 c0.15 -0.65 0.05 -0.95 -0.30 -0.80 -0.75 0.25 -1.10 1.85 -0.45 1.85 0.25 0 0.60 -0.45 0.75 -1.05z"/>
  <path d="M132.90 151.15 c1.40 -0.30 1.40 -0.45 -0.25 -1.85 -1.50 -1.30 -1.20 -2.30 0.75 -2.25 1.35 0 1.35 0 0.20 0.50 -1.20 0.45 -1.10 1.45 0.15 1.45 0.75 0 1.40 1.35 0.95 2.05 -0.15 0.25 -0.85 0.40 -1.60 0.40 -1.20 -0.10 -1.20 -0.10 -0.20 -0.30z"/>
  <path d="M33.45 135.30 c-0.50 -0.85 -0.95 -1.75 -0.95 -1.95 0 -0.20 -0.40 -1.35 -0.90 -2.50 -1.20 -2.70 -3.95 -9.75 -4.35 -11.25 -0.30 -1.10 -0.25 -1.15 2.05 -1 2.35 0.15 2.40 0.15 3 2.40 1.35 4.70 3.45 10.25 3.95 10.15 0.45 -0.10 1.30 -2.25 3.05 -7.65 1.55 -4.85 1.65 -5 3.80 -5 1.95 0 2 0 1.65 1.60 -0.65 2.90 -6.15 16.35 -6.70 16.45 -3.50 0.35 -3.65 0.35 -4.60 -1.25z"/>
  <path d="M48.70 136.50 c-2.10 -0.85 -3.75 -3.70 -3.80 -6.45 -0.05 -7.85 9.30 -10.35 12.90 -3.45 1.65 3.20 0.25 8.20 -2.80 9.75 -1.40 0.70 -4.75 0.80 -6.30 0.15z m4.45 -3.25 c2 -1.95 1.10 -7.25 -1.20 -7.25 -1.85 0 -2.95 1.40 -2.95 3.70 0 3.50 2.30 5.45 4.15 3.55z"/>
  <path d="M64.50 136.60 c-2.80 -1.25 -4 -3.10 -4 -6.25 0 -5.05 2.35 -7.60 7.10 -7.60 1.55 0 2.95 0.15 3.15 0.35 0.20 0.20 0.20 1 0 1.80 -0.30 1.40 -0.45 1.50 -2.20 1.25 -2.60 -0.35 -4.05 1.05 -4.05 3.85 0 2.90 1.45 4.20 4.25 3.85 2 -0.30 2.15 -0.25 2.40 1.05 0.15 0.75 0 1.50 -0.30 1.70 -0.75 0.45 -5.30 0.45 -6.35 0z"/>
  <path d="M74.60 136.65 c-1.55 -0.30 -2.75 -2.85 -2.35 -5 0.25 -1.45 0.65 -1.90 2.60 -2.75 1.25 -0.55 2.90 -0.90 3.70 -0.80 0.90 0.15 1.45 0 1.45 -0.40 0 -1.15 -1.45 -1.80 -3.80 -1.65 -2.25 0.15 -2.40 0.05 -2.75 -1.20 -0.30 -1.20 -0.20 -1.45 0.85 -1.90 0.70 -0.25 2.40 -0.45 3.80 -0.45 2.20 0 2.70 0.20 4.20 1.70 l1.70 1.70 0 5.25 0 5.20 -1.85 0.35 c-2.05 0.30 -5.70 0.30 -7.55 -0.05z m5.40 -4.15 c0 -1.25 -0.20 -1.50 -1.20 -1.50 -1.85 0 -2.80 0.50 -2.80 1.45 0 1.25 0.45 1.55 2.35 1.55 1.50 0 1.65 -0.15 1.65 -1.50z"/>
  <path d="M88.35 136.65 l-1.35 -0.20 0.10 -8.85 0.15 -8.85 4.35 -0.15 c5.50 -0.20 7.60 0.60 8.70 3.15 0.70 1.70 0.70 1.95 -0.25 3.50 l-0.95 1.65 1.20 1.05 c1.65 1.45 1.70 4.95 0.10 6.80 -1.70 1.95 -6.65 2.70 -12.05 1.90z m7.75 -3.45 c1.85 -0.55 1.65 -3.50 -0.30 -4 -0.65 -0.15 -1.90 -0.20 -2.85 -0.10 -1.65 0.15 -1.70 0.20 -1.55 2.15 0.10 1.10 0.30 2.20 0.45 2.40 0.20 0.35 1.95 0.20 4.25 -0.45z m0.30 -9.15 c0.25 -1.45 -0.60 -2.05 -3 -2.05 -1.85 0 -1.90 0.05 -1.90 1.80 l0 1.75 2.40 -0.15 c2.05 -0.15 2.35 -0.30 2.50 -1.35z"/>
  <path d="M107.10 136.60 c-2.30 -0.70 -3.10 -2.90 -3.10 -8.45 l0 -5.15 2 0 2 0 0 4.70 c0 5.15 0.50 6.30 2.80 6.30 1.20 0 1.20 0 1.20 -5.50 l0 -5.50 2 0 2 0 0 6.45 c0 4.30 -0.20 6.60 -0.55 6.85 -0.85 0.50 -7 0.75 -8.35 0.30z"/>
  <path d="M119.20 136.55 c-0.10 -0.10 -0.20 -3.20 -0.20 -6.90 l0 -6.65 2 0 2.05 0 -0.15 6.90 -0.15 6.85 -1.65 0 c-0.95 0 -1.80 -0.10 -1.90 -0.20z"/>
  <path d="M128.60 136.65 c-2.10 -0.40 -2.60 -2.75 -2.60 -11.65 0 -7.30 0.10 -8 0.90 -8 0.45 0 1.35 -0.15 2 -0.30 l1.10 -0.30 0 8.25 c0 7.85 0.05 8.35 1.05 9 0.65 0.50 0.95 1.15 0.85 1.95 -0.15 1.20 -1.10 1.50 -3.30 1.05z"/>
  <path d="M136.70 136.30 c-1.90 -0.85 -3.20 -3.45 -3.20 -6.35 0 -4.75 2.10 -7.20 6.15 -7.20 l2.35 0 0 -2.85 c0 -2.45 0.15 -2.90 0.90 -2.90 0.45 0 1.35 -0.15 2 -0.30 l1.10 -0.30 0 10 0 10 -1.55 0.30 c-2.55 0.50 -6.10 0.30 -7.75 -0.40z m5.30 -6.05 c0 -4.10 -0.35 -4.65 -2.70 -4.05 -1.70 0.40 -2.55 2.75 -1.80 5 0.65 1.95 1.60 2.75 3.40 2.80 1.05 0 1.10 -0.20 1.10 -3.75z"/>
  <path d="M152.60 136.65 c-1.75 -0.35 -3.70 -3.35 -3.95 -6.05 -0.25 -2.90 0.90 -5.35 3.30 -6.95 4.55 -3.05 10.10 0.55 9.45 6.10 l-0.15 1.50 -4 0.05 c-4.25 0.10 -5.10 0.60 -3 2 0.95 0.65 1.85 0.75 3.75 0.50 l2.50 -0.35 0 1.50 c0 0.85 -0.30 1.55 -0.80 1.75 -0.85 0.35 -5.25 0.30 -7.10 -0.05z m4.80 -9.25 c-0.90 -1.35 -2.65 -1.75 -3.70 -0.90 -1.50 1.25 -0.80 2 1.85 2 2.55 0 2.55 0 1.85 -1.10z"/>
  <path d="M164.25 136.60 c-0.15 -0.15 -0.25 -3.15 -0.25 -6.60 l0 -6.40 2.20 -0.55 c2.60 -0.65 5.30 -0.70 6.20 -0.15 0.40 0.25 0.50 0.95 0.30 1.95 -0.30 1.45 -0.40 1.50 -2.50 1.25 l-2.15 -0.25 -0.15 5.40 -0.15 5.40 -1.60 0.10 c-0.90 0.05 -1.75 0 -1.90 -0.15z"/>
  <path d="M119 120.05 c-0.85 -1.70 0.20 -3.15 2.15 -2.95 1.45 0.15 1.60 0.30 1.60 1.90 0 1.60 -0.15 1.75 -1.60 1.90 -1.20 0.10 -1.70 -0.10 -2.15 -0.85z"/>
 </g>
</svg>